<?xml version="1.0" standalone="no"?>
<!DOCTYPE svg PUBLIC "-//W3C//DTD SVG 20010904//EN" "http://www.w3.org/TR/2001/REC-SVG-20010904/DTD/svg10.dtd">
<!-- Created using Krita: https://krita.org -->
<svg xmlns="http://www.w3.org/2000/svg" 
    xmlns:xlink="http://www.w3.org/1999/xlink"
    xmlns:krita="http://krita.org/namespaces/svg/krita"
    xmlns:sodipodi="http://sodipodi.sourceforge.net/DTD/sodipodi-0.dtd"
    width="310.08pt"
    height="420.72pt"
    viewBox="0 0 310.08 420.72">
<defs/>
<path id="shape0" transform="matrix(1.00191402902062 0 0 1.00013049029831 2.10407386385183 82.3033459707779)" fill="none" stroke="#ffffff" stroke-width="7.2" stroke-linecap="square" stroke-linejoin="bevel" d="M7.68 102.72C7.36 99.776 6.56 92.416 5.28 80.64C10.656 71.936 14.016 66.496 15.36 64.32C18.336 61.152 23.136 55.872 29.76 48.48C40.736 38.4 48.576 31.2 53.28 26.88C63.136 19.04 68.736 13.44 72.96 10.08C76.704 7.776 79.616 5.024 85.44 1.44C88.608 1.152 93.888 0.672 101.28 0C110.464 0.672 117.024 1.152 120.96 1.44C126 1.77601 127.08 1.94401 130.32 2.16001C136.391 3.36629 141.529 3.99376 145.68 6.48001C149.681 8.63916 152.795 8.80482 155.52 12.24C161.161 14.7498 163.908 20.683 167.28 23.76C169.008 26.016 171.328 29.776 174.24 35.04C176.256 39.04 177.696 41.76 178.56 43.2C179.456 48.352 180.576 52.032 180.96 54.24C181.536 57.792 182.336 63.712 183.36 72C184.608 81.408 185.568 88.128 186.24 92.16C187.36 101.568 188.16 108.768 188.64 112.8C188.736 114.72 188.896 117.28 189.12 120.48C189.697 139.748 191.777 150.788 195.36 153.6C203.868 160.277 227.068 158.677 264.96 148.8C267.573 157.253 269.173 163.333 269.76 167.04C270.552 172.048 271.032 180.528 271.2 192.48C270.761 200.992 270.441 207.072 270.24 210.72C269.757 219.496 269.226 227.885 266.88 235.2C264.608 242.286 262.304 246.432 261.6 248.16C260.544 251.136 258.784 256.896 256.32 265.44C257.088 292.768 257.568 312.288 257.76 324C258.144 325.536 259.104 329.376 260.64 335.52L169.44 336C170.528 329.344 171.328 325.024 171.84 323.04C171.648 317.856 171.328 309.216 170.88 297.12C150.048 297.568 135.168 297.888 126.24 298.08C127.584 310.176 126.816 316.224 127.68 324C128.576 329.6 129.216 333.6 129.6 336C109.92 335.904 77.12 335.744 31.2 335.52C32.48 330.144 33.28 326.784 33.6 325.44C33.168 316.944 32.832 310.336 32.16 297.12C31.104 293.856 29.344 288.416 26.88 280.8C25.76 273.632 24.96 268.512 24.48 265.44C22.464 255.36 21.024 248.16 20.16 243.84C19.584 238.368 19.136 234.112 18.24 225.6C17.952 221.472 17.472 214.592 16.8 204.96C17.92 194.432 18.72 186.912 19.2 182.4C21.44 173.664 23.04 167.424 24 163.68C26.016 160.416 29.376 154.976 34.08 147.36C38.24 138.624 41.28 132.384 43.2 128.64C28.64 127.968 21.36 129.072 12 128.64C9.312 124.384 5.472 121.344 4.32 119.52C3.168 115.776 1.792 112.864 0 107.04C0.576 106.56 1.056 105.76 1.44 104.64C1.44 104.64 3.52 104 7.68 102.72Z"/><path id="shape01" transform="matrix(0.903666752009968 0.431916855858025 -0.432687095786431 0.902058106360145 151.131778717566 36.3206811011585)" fill="none" stroke="#ffffff" stroke-width="7.2" stroke-linecap="square" stroke-linejoin="bevel" d="M0.509117 52.439L0 47.6873L2.20617 38.8626L7.5571 25.2861L13.0673 14.5947L18.8373 5.60029L23.9285 0L26.1347 0L28.1711 2.20617L30.7167 6.95793L33.6017 12.8976L36.317 20.7041L38.6929 28.0014L40.8991 35.9776L42.7658 44.6326L43.2749 50.5723L43.4446 52.7784C28.0183 46.9669 13.7065 46.8538 0.509117 52.439Z"/><path id="shape02" transform="matrix(1.00191402902062 0 0 1.00013049029831 86.8689191525804 31.6348334567146)" fill="none" stroke="#ffffff" stroke-width="7.2" stroke-linecap="square" stroke-linejoin="bevel" d="M0.509117 52.439L0 47.6873L2.20617 38.8626L7.5571 25.2861L13.0673 14.5947L18.8373 5.60029L23.9285 0L26.1347 0L28.1711 2.20617L30.7167 6.95793L33.6017 12.8976L36.317 20.7041L38.6929 28.0014L40.8991 35.9776L42.7658 44.6326L43.2749 50.5723L43.4446 52.7784C29.2116 50.3131 14.8997 50.1999 0.509117 52.439Z"/><path id="shape03" transform="matrix(0.948321680904276 -0.0912033392223287 0.251176362432836 0.980605056645913 10.5113012088444 185.438585678801)" fill="none" stroke="#ffffff" stroke-width="7.2" stroke-linecap="round" stroke-linejoin="miter" stroke-miterlimit="1.91999995708466" d="M0 0C17.12 4.35331 34.24 3.79245 51.36 0.48"/><path id="shape04" transform="matrix(0.999999941310013 0 0 0.999999941310013 14.1600560996308 162.359992083138)" fill="#ffffff" fill-rule="evenodd" stroke="#ffffff" stroke-width="1.68" stroke-linecap="square" stroke-linejoin="bevel" d="M3.6 15.96L9.72 15.84L9.6 13.44L8.04 9L5.64 3.36L3.12 0.36L1.68 0L0.36 0.6L0 1.92L0.48 5.4L1.44 9.36C1.52 9.44 2.24 11.64 3.6 15.96Z"/><path id="shape05" transform="matrix(0.999999941310013 0 0 0.999999941310013 27.8400471185496 165.119986541061)" fill="#ffffff" fill-rule="evenodd" stroke="#ffffff" stroke-width="1.68" stroke-linecap="square" stroke-linejoin="bevel" d="M5.76 6.48C5.76 2.90119 4.47058 2.19139e-16 2.88 0C1.28942 -2.19139e-16 1.9479e-16 2.90119 0 6.48C-1.9479e-16 10.0588 1.40943 11.16 3.00001 11.16C4.59059 11.16 5.76 10.0588 5.76 6.48Z"/><ellipse id="shape06" transform="matrix(1.00191402902062 0 0 1.00013049029831 98.5282908015576 113.987484618274)" rx="21.36" ry="23.28" cx="21.36" cy="23.28" fill="none" stroke="#ffffff" stroke-width="7.2" stroke-linecap="square" stroke-linejoin="bevel"/><path id="shape011" transform="matrix(0.999999994197076 0 0 0.999999994197076 106.320013710452 120.239999302256)" fill="#ffffff" fill-rule="evenodd" stroke="#ffffff" stroke-width="1.68" stroke-linecap="square" stroke-linejoin="bevel" d="M22.8 12.48L22.795 12.091L22.778 11.706L22.752 11.323L22.714 10.944L22.667 10.568L22.609 10.196L22.542 9.827L22.465 9.463L22.378 9.103L22.281 8.747L22.175 8.395L22.06 8.049L21.937 7.707L21.804 7.37L21.662 7.039L21.512 6.712L21.354 6.392L21.187 6.077L21.012 5.768L20.83 5.465L20.639 5.168L20.442 4.878L20.236 4.594L20.023 4.317L19.804 4.047L19.577 3.784L19.343 3.528L19.103 3.28L18.857 3.04L18.604 2.807L18.344 2.582L18.079 2.365L17.808 2.157L17.531 1.957L17.249 1.766L16.961 1.583L16.669 1.41L16.371 1.246L16.068 1.091L15.76 0.945L15.448 0.81L15.131 0.684L14.81 0.568L14.485 0.462L14.156 0.367L13.823 0.283L13.487 0.209L13.147 0.146L12.803 0.094L12.457 0.053L12.107 0.024L11.755 0.006L11.4 0L11.045 0.006L10.693 0.024L10.343 0.053L9.997 0.094L9.653 0.146L9.313 0.209L8.977 0.283L8.644 0.367L8.315 0.462L7.99 0.568L7.669 0.684L7.352 0.81L7.04 0.945L6.732 1.091L6.429 1.246L6.132 1.41L5.839 1.583L5.551 1.766L5.269 1.957L4.992 2.157L4.721 2.365L4.456 2.582L4.196 2.807L3.943 3.04L3.697 3.28L3.457 3.528L3.223 3.784L2.996 4.047L2.777 4.317L2.564 4.594L2.359 4.878L2.161 5.168L1.97 5.465L1.788 5.768L1.613 6.077L1.446 6.392L1.288 6.712L1.138 7.039L0.996 7.37L0.864 7.707L0.74 8.049L0.625 8.395L0.519 8.747L0.422 9.103L0.335 9.463L0.258 9.827L0.191 10.196L0.133 10.568L0.086 10.944L0.048 11.323L0.022 11.706L0.005 12.091L0 12.48L0.005 12.869L0.022 13.254L0.048 13.637L0.086 14.016L0.133 14.392L0.191 14.764L0.258 15.133L0.335 15.497L0.422 15.857L0.519 16.213L0.625 16.565L0.74 16.911L0.864 17.253L0.996 17.59L1.138 17.921L1.288 18.248L1.446 18.568L1.613 18.883L1.788 19.192L1.97 19.495L2.161 19.792L2.359 20.082L2.564 20.366L2.777 20.643L2.996 20.913L3.223 21.176L3.457 21.432L3.697 21.68L3.943 21.92L4.196 22.153L4.456 22.378L4.721 22.595L4.992 22.803L5.269 23.003L5.551 23.194L5.839 23.377L6.132 23.55L6.429 23.714L6.732 23.869L7.04 24.015L7.352 24.15L7.669 24.276L7.99 24.392L8.315 24.498L8.644 24.593L8.977 24.677L9.313 24.751L9.653 24.814L9.997 24.866L10.343 24.907L10.693 24.936L11.045 24.954L11.4 24.96L11.755 24.954L12.107 24.936L12.457 24.907L12.803 24.866L13.147 24.814L13.487 24.751L13.823 24.677L14.156 24.593L14.485 24.498L14.81 24.392L15.131 24.276L15.448 24.15L15.76 24.015L16.068 23.869L16.371 23.714L16.669 23.55L16.961 23.377L17.249 23.194L17.531 23.003L17.808 22.803L18.079 22.595L18.344 22.378L18.604 22.153L18.857 21.92L19.103 21.68L19.343 21.432L19.577 21.176L19.804 20.913L20.023 20.643L20.236 20.366L20.442 20.082L20.639 19.792L20.83 19.495L21.012 19.192L21.187 18.883L21.354 18.568L21.512 18.248L21.662 17.921L21.804 17.59L21.937 17.253L22.06 16.911L22.175 16.565L22.281 16.213L22.378 15.857L22.465 15.497L22.542 15.133L22.609 14.764L22.667 14.392L22.714 14.016L22.752 13.637L22.778 13.254L22.795 12.869L22.8 12.48M8.64 8.76L8.622 8.355L8.571 7.962L8.487 7.584L8.373 7.224L8.23 6.882L8.061 6.563L7.867 6.268L7.65 5.998L7.412 5.758L7.154 5.548L6.879 5.371L6.588 5.23L6.284 5.126L5.967 5.062L5.64 5.04L5.313 5.062L4.996 5.126L4.692 5.23L4.401 5.371L4.126 5.548L3.868 5.758L3.63 5.998L3.413 6.268L3.219 6.563L3.05 6.882L2.907 7.224L2.793 7.584L2.709 7.962L2.658 8.355L2.64 8.76L2.658 9.165L2.709 9.558L2.793 9.936L2.907 10.296L3.05 10.638L3.219 10.957L3.413 11.252L3.63 11.522L3.868 11.762L4.126 11.972L4.401 12.149L4.692 12.29L4.996 12.394L5.313 12.458L5.64 12.48L5.967 12.458L6.284 12.394L6.588 12.29L6.879 12.149L7.154 11.972L7.412 11.762L7.65 11.522L7.867 11.252L8.061 10.957L8.23 10.638L8.373 10.296L8.487 9.936L8.571 9.558L8.622 9.165L8.64 8.76"/><path id="shape011" transform="matrix(1.00191407011738 0 0 1.00013053132191 265.887998118997 165.59422647042)" fill="none" stroke="#ffffff" stroke-width="7.2" stroke-linecap="square" stroke-linejoin="bevel" d="M2.4 65.04L12 47.52L17.76 30.24L14.88 0L0 1.92L4.56 26.16L3.6 46.32Z"/><path id="shape012" transform="matrix(0.855673100403699 0.520277726019948 -0.521205540419887 0.854149889764851 293.540722424769 179.084179258517)" fill="none" stroke="#ffffff" stroke-width="7.2" stroke-linecap="square" stroke-linejoin="bevel" d="M5.16666 56.479C4.55591 49.4018 4.73104 39.8969 6.86867 30.1886C5.90164 22.8846 5.14052 16.2862 0 10.8877L16.7958 0C20.4604 7.44 21.9873 15.8327 21.3766 25.1779C18.73 34.5687 12.1904 45.9087 5.16666 56.479Z"/><path id="shape021" transform="matrix(0.938253678613964 -0.350816749660881 0.351442363281831 0.936583463686641 243.80983457932 187.953184960014)" fill="none" stroke="#ffffff" stroke-width="7.2" stroke-linecap="square" stroke-linejoin="bevel" d="M6.1509 49.5C5.61221 43.1444 7.30928 34.6771 9.19469 25.9586C8.34176 19.3992 4.53399 6.09107 0 1.24293L14.9047 0C18.1369 6.68152 20.7153 14.2473 20.1766 22.6398C17.8422 31.0732 12.3459 40.0074 6.1509 49.5Z"/><path id="shape0111" transform="matrix(1.00191409066576 0 0 1.00013055183371 94.2206293579918 1.22719192126706)" fill="none" stroke="#ffffff" stroke-width="4.8" stroke-linecap="square" stroke-linejoin="bevel" d="M13.56 31.56L0 10.44L4.92 6.72L13.56 20.4L9.96 1.8L16.68 0L18.36 10.32L18.96 2.88L24.84 3.72L22.68 15.12L24.24 6.84L29.28 8.64L23.52 24.12L27.48 15.6L30.84 17.76L22.32 31.68Z"/><path id="shape0211" transform="matrix(0.800702975472539 0.601179181826352 -0.602251268279311 0.799277618884582 178.607382055873 11.9445318617908)" fill="none" stroke="#ffffff" stroke-width="4.8" stroke-linecap="square" stroke-linejoin="bevel" d="M13.56 31.56L0 10.44L4.92 6.72L13.56 20.4L9.96 1.8L16.68 0L18.36 10.32L18.96 2.88L24.84 3.72L22.68 15.12L24.24 6.84L29.28 8.64L23.52 24.12L27.48 15.6L30.84 17.76L22.32 31.68Z"/>
</svg>
